<?xml version="1.0" encoding="UTF-8"?>
<svg width="252px" height="252px" viewBox="0 0 252 252" version="1.1" xmlns="http://www.w3.org/2000/svg" xmlns:xlink="http://www.w3.org/1999/xlink">
    <!-- Generator: Sketch 51.3 (57544) - http://www.bohemiancoding.com/sketch -->
    <title>analytics</title>
    <desc>Created with Sketch.</desc>
    <defs></defs>
    <g id="analytics" stroke="none" stroke-width="1" fill="none" fill-rule="evenodd">
        <g id="icon-features-study-copy" transform="translate(13.000000, 22.000000)" fill="#222222" fill-rule="nonzero">
            <g id="icon-features-study">
                <path d="M208.193875,0 L16.7386836,0 C7.4941639,-5.66500039e-16 2.60709965e-15,7.49994234 1.47497574e-15,16.7515901 L1.47497574e-15,136.665923 C-0.0138148954,141.117728 1.7436193,145.391937 4.88422999,148.54473 C8.02484068,151.697524 12.2902873,153.469558 16.7386836,153.469536 L108.333592,153.469536 L108.333592,168.686431 L71.5292813,200.654916 C70.3871086,201.639986 69.8568214,203.16004 70.1381738,204.642489 C70.4195261,206.124937 71.4697738,207.34456 72.8932988,207.841938 C74.3168237,208.339316 75.8973586,208.038886 77.0395312,207.053815 L108.229625,179.767452 L108.229625,203.854366 C108.222654,204.980987 108.666776,206.063485 109.462819,206.860142 C110.258861,207.656799 111.340526,208.101263 112.466279,208.094287 C114.791764,208.094287 116.676942,206.207655 116.676942,203.880377 L116.676942,179.871499 L147.217242,207.027803 C148.345485,208.026813 149.92058,208.347562 151.349204,207.869226 C152.777827,207.39089 153.842937,206.18614 154.143316,204.708794 C154.443696,203.231448 153.933711,201.705949 152.805467,200.706939 L116.754917,168.608396 L116.754917,153.469536 L208.193875,153.469536 C217.438394,153.469536 224.932558,145.969594 224.932558,136.717946 L224.932558,16.7515901 C224.932558,7.49994234 217.438394,5.66500039e-16 208.193875,0 Z M216.485241,136.665923 C216.485241,141.248649 212.77307,144.963682 208.193875,144.963682 L16.7386836,144.963682 C12.1594883,144.963682 8.44731701,141.248649 8.44731701,136.665923 L8.44731701,16.7515901 C8.44731701,12.1688639 12.1594883,8.45383039 16.7386836,8.45383039 L208.193875,8.45383039 C212.77307,8.45383039 216.485241,12.1688639 216.485241,16.7515901 L216.485241,136.665923 Z M149.764433,69.5555153 L135.988808,56.2895045 C134.367699,54.7633328 131.839749,54.7633328 130.218641,56.2895045 L89.3076346,93.3562993 L74.5703154,78.8157111 C72.9355918,77.2231609 70.3309047,77.2231609 68.6961811,78.8157111 L37.5060875,108.469147 C36.1068703,109.404665 35.3985766,111.08407 35.7048475,112.739992 C36.0111184,114.395913 37.2731357,115.710338 38.9142453,116.082664 C40.5553549,116.454991 42.260388,115.813716 43.2502631,114.451858 L71.555273,87.7117418 L86.2406088,102.174295 C87.8652416,103.716849 90.412135,103.716849 92.0367678,102.174295 L132.973766,65.0294646 L146.827366,78.3735107 C148.458807,79.9492525 151.044066,79.9492525 152.675508,78.3735107 L188.726058,43.8038473 C190.405575,42.1876822 190.457941,39.5149543 188.843021,37.8341425 C187.228101,36.1533307 184.557432,36.1009243 182.877915,37.7170895 L149.764433,69.5555153 Z" id="Combined-Shape"></path>
            </g>
        </g>
    </g>
</svg>