<?xml version="1.0" encoding="utf-8"?>
<!-- Generator: Adobe Illustrator 19.2.1, SVG Export Plug-In . SVG Version: 6.00 Build 0)  -->
<svg version="1.1" id="Layer_1" xmlns="http://www.w3.org/2000/svg" xmlns:xlink="http://www.w3.org/1999/xlink" x="0px" y="0px"
	 viewBox="0 0 105 28" style="enable-background:new 0 0 105 28;" xml:space="preserve">
<style type="text/css">
	.st0{fill:url(#App-Icon-Shape_1_);}
	.st1{fill:#FFFFFF;}
</style>
<g id="Group-Copy-2" transform="translate(1.000000, 1.000000)">
	
		<linearGradient id="App-Icon-Shape_1_" gradientUnits="userSpaceOnUse" x1="-230.2418" y1="284.591" x2="-230.2418" y2="284.9207" gradientTransform="matrix(80 0 0 -80 18431.5312 22792.6523)">
		<stop  offset="0" style="stop-color:#FF5208"/>
		<stop  offset="1" style="stop-color:#FFA408"/>
	</linearGradient>
	<path id="App-Icon-Shape" class="st0" d="M19.1-1c3.8,0,6.3,2.5,6.3,6.3v13.8c0,3.8-2.5,6.3-6.3,6.3H5.3c-3.8,0-6.3-2.5-6.3-6.3
		V5.3C-1,1.5,1.5-1,5.3-1H19.1z"/>
	<path id="logo" class="st1" d="M3,16.8v-2.9l4.4-4.3l7.5,0L21.4,3v2.9l-5.7,5.7H8.2L3,16.8L3,16.8z M3,21.4v-2.9l5.8-5.8l7.5,0
		l5.1-5.1v2.9l-4.3,4.4H9.6L3,21.4L3,21.4z"/>
</g>
<path id="Libertex-Copy" class="st1" d="M34.9,18h6.5v2h-8.9V5.8h2.5V18z M45.7,20h-2.4V9.4h2.4V20z M43.2,6.7
	c0-0.4,0.1-0.7,0.3-0.9c0.2-0.2,0.6-0.4,1-0.4c0.4,0,0.8,0.1,1,0.4c0.2,0.2,0.4,0.5,0.4,0.9c0,0.4-0.1,0.7-0.4,0.9
	c-0.2,0.2-0.6,0.4-1,0.4c-0.4,0-0.8-0.1-1-0.4C43.3,7.3,43.2,7,43.2,6.7L43.2,6.7z M57.8,14.8c0,1.6-0.4,2.9-1.1,3.9
	c-0.7,1-1.7,1.5-3,1.5c-1.2,0-2.2-0.4-2.9-1.3L50.7,20h-2.1V5h2.4v5.4c0.7-0.8,1.6-1.2,2.8-1.2c1.3,0,2.3,0.5,3,1.4
	c0.7,1,1.1,2.3,1.1,4V14.8z M55.4,14.6c0-1.1-0.2-2-0.6-2.6c-0.4-0.6-1-0.9-1.8-0.9c-1,0-1.8,0.4-2.2,1.3v4.4
	c0.4,0.9,1.2,1.4,2.2,1.4c0.7,0,1.3-0.3,1.7-0.8c0.4-0.6,0.6-1.4,0.6-2.5V14.6z M64.6,20.2c-1.5,0-2.7-0.5-3.7-1.4
	c-0.9-0.9-1.4-2.2-1.4-3.8v-0.3c0-1.1,0.2-2,0.6-2.8c0.4-0.8,1-1.5,1.7-1.9c0.7-0.5,1.6-0.7,2.5-0.7c1.4,0,2.5,0.5,3.3,1.4
	c0.8,0.9,1.2,2.2,1.2,3.9v1H62c0.1,0.9,0.4,1.6,0.9,2.1c0.5,0.5,1.2,0.8,1.9,0.8c1.1,0,2-0.4,2.7-1.3l1.3,1.2
	c-0.4,0.6-1,1.1-1.7,1.5C66.3,20,65.5,20.2,64.6,20.2L64.6,20.2z M64.4,11.1c-0.7,0-1.2,0.2-1.6,0.7c-0.4,0.5-0.7,1.1-0.8,1.9h4.5
	v-0.2c-0.1-0.8-0.3-1.4-0.6-1.8C65.5,11.3,65,11.1,64.4,11.1L64.4,11.1z M76.5,11.6c-0.3-0.1-0.6-0.1-1-0.1c-1.1,0-1.8,0.4-2.2,1.2
	V20h-2.4V9.4h2.3l0.1,1.2c0.6-0.9,1.4-1.4,2.4-1.4c0.3,0,0.6,0,0.8,0.1L76.5,11.6z M81.6,6.9v2.6h1.9v1.8h-1.9v5.9
	c0,0.4,0.1,0.7,0.2,0.9c0.2,0.2,0.4,0.3,0.9,0.3c0.3,0,0.5,0,0.8-0.1V20c-0.5,0.1-1.1,0.2-1.6,0.2c-1.8,0-2.7-1-2.7-3v-6h-1.7V9.4
	h1.7V6.9H81.6z M90.2,20.2c-1.5,0-2.7-0.5-3.7-1.4c-0.9-0.9-1.4-2.2-1.4-3.8v-0.3c0-1.1,0.2-2,0.6-2.8c0.4-0.8,1-1.5,1.7-1.9
	c0.7-0.5,1.6-0.7,2.5-0.7c1.4,0,2.5,0.5,3.3,1.4c0.8,0.9,1.2,2.2,1.2,3.9v1h-6.9c0.1,0.9,0.4,1.6,0.9,2.1c0.5,0.5,1.2,0.8,1.9,0.8
	c1.1,0,2-0.4,2.7-1.3l1.3,1.2c-0.4,0.6-1,1.1-1.7,1.5C91.8,20,91,20.2,90.2,20.2L90.2,20.2z M89.9,11.1c-0.7,0-1.2,0.2-1.6,0.7
	c-0.4,0.5-0.7,1.1-0.8,1.9h4.5v-0.2c-0.1-0.8-0.3-1.4-0.6-1.8C91.1,11.3,90.5,11.1,89.9,11.1L89.9,11.1z M100.2,12.9l2-3.5h2.6
	l-3.2,5.2L105,20h-2.6l-2.1-3.6L98.2,20h-2.6l3.3-5.4l-3.2-5.2h2.6L100.2,12.9z"/>
</svg>
