<svg xmlns="http://www.w3.org/2000/svg" width="121" height="67" viewBox="0 0 121 67">
  <path fill="#222" d="M68,64 L68,59 L17,59 L17,5 C17,3.75034097 18.0438011,3 19,3 L98,3 C99.1453268,3.16 99.8503908,3.8673901 100,5 L100,14 L103,14 L103,5 C103,2.12217029 100.884808,1.60295839e-16 98,0 L19,0 C16.0314673,0 14,1.9139246 14,5 L14,64 L2,64 C1.57286648,64.0881058 0.957701224,64.5343344 0.954196356,65.5448149 C0.950691487,66.5552955 1.57286648,66.9118942 2,67 L69,67 L68,64 Z M65,64 L59,64 L59,61 L65,61 L65,64 Z M98.1114406,61.3774834 L98.1114406,63.8609272 L99.1492464,67 L74.6372622,67 C72.6383766,66.9946219 71.016244,65.3731586 71,63.3642384 L71,19.6556291 C71.0054305,17.638946 72.6307114,16.0054579 74.6372622,16 L107.362738,16 C109.369289,16.0054579 110.99457,17.638946 111,19.6556291 L111,31.9536424 L107.876699,31.9536424 L107.876699,19.6556291 C107.876699,19.3648567 107.642165,19.1291391 107.352854,19.1291391 L74.6372622,19.1291391 C74.3479507,19.1291391 74.1134173,19.3648567 74.1134173,19.6556291 L74.1134173,61.3774834 L98.1114406,61.3774834 Z M91.5,66 C91.8978247,66 92.2793556,65.8419647 92.5606602,65.5606602 C92.8419647,65.2793556 93,64.8978247 93,64.5 C93,63.6715729 92.3284271,63 91.5,63 C90.6715729,63 90,63.6715729 90,64.5 C90,65.3284271 90.6715729,66 91.5,66 Z M117.256358,34 C119.321595,34.005435 120.994411,35.6320679 121,37.6402878 L121,63.3597122 C120.994411,65.3679321 119.321595,66.994565 117.256358,67 L104.743642,67 C102.678405,66.994565 101.005589,65.3679321 101,63.3597122 L101,37.6402878 C101.005589,35.6320679 102.678405,34.005435 104.743642,34 L117.256358,34 Z M110.5,66 C111.328427,66 112,65.3284271 112,64.5 C112,63.6715729 111.328427,63 110.5,63 C109.671573,63 109,63.6715729 109,64.5 C109,65.3284271 109.671573,66 110.5,66 Z M118,61 L118,37.5185487 C118,37.2321622 117.751344,37 117.444611,37 L104.555389,37 C104.248656,37 104,37.2321622 104,37.5185487 L104,61 L118,61 Z"/>
</svg>
