<?xml version="1.0" encoding="UTF-8"?>
<svg width="252px" height="252px" viewBox="0 0 252 252" version="1.1" xmlns="http://www.w3.org/2000/svg" xmlns:xlink="http://www.w3.org/1999/xlink">
    <!-- Generator: Sketch 51.3 (57544) - http://www.bohemiancoding.com/sketch -->
    <title>portfolio</title>
    <desc>Created with Sketch.</desc>
    <defs></defs>
    <g id="portfolio" stroke="none" stroke-width="1" fill="none" fill-rule="evenodd">
        <g id="Group-Copy" transform="translate(4.000000, 34.000000)" fill-rule="nonzero" stroke="#222222">
            <path d="M92.3521493,-41.313953 C84.6892313,-41.313953 78.4772089,-35.1019306 78.4772089,-27.4390126 L78.4772089,179.321729 C78.4772089,186.984647 84.6892313,193.196669 92.3521493,193.196669 L129.00679,193.196669 C135.551039,193.196669 141.205553,188.623952 142.574684,182.224525 L165.105767,76.9124964 C165.552471,74.8245685 165.511273,72.6617141 164.98538,70.5923123 L139.204421,-30.8564006 C137.641235,-37.0075737 132.103604,-41.313953 125.756914,-41.313953 L92.3521493,-41.313953 Z" id="Rectangle-7-Copy" stroke-width="8.73011875" transform="translate(121.944214, 75.941358) rotate(-270.000000) translate(-121.944214, -75.941358) "></path>
            <rect id="Rectangle-7" stroke-width="7.9799999" fill="#F5F5F5" x="110.027383" y="99.9159259" width="25.0854207" height="33.1311112" rx="7.9799999"></rect>
            <path d="M12.5420561,95.3832227 L12.5420561,169.04 C12.5420561,177.854465 19.6875914,185 28.5020559,185 L215.497944,185 C224.312409,185 231.457944,177.854465 231.457944,169.04 L231.457944,93.6419753" id="Path-2" stroke-width="9.11999989"></path>
            <path d="M87.7943925,28.5493827 L87.7943925,12.5399998 C87.7943925,5.61434917 93.4087417,3.04857823e-15 100.334392,1.77635684e-15 L142.525421,-1.77635684e-15 C149.451071,3.10263524e-15 155.065421,5.61434917 155.065421,12.5399998 L155.065421,28.5493827" id="Path-3" stroke-width="9.11999989"></path>
        </g>
    </g>
</svg>