<?xml version="1.0" encoding="UTF-8"?>
<svg width="252px" height="252px" viewBox="0 0 252 252" version="1.1" xmlns="http://www.w3.org/2000/svg" xmlns:xlink="http://www.w3.org/1999/xlink">
    <!-- Generator: Sketch 51.3 (57544) - http://www.bohemiancoding.com/sketch -->
    <title>VIPservice</title>
    <desc>Created with Sketch.</desc>
    <defs></defs>
    <g id="VIPservice" stroke="none" stroke-width="1" fill="none" fill-rule="evenodd">
        <g id="icon-features-award-copy-2" transform="translate(20.000000, 10.000000)" fill-rule="nonzero">
            <g id="icon-features-award">
                <path d="M58.313656,231.880415 C56.8027186,231.734638 55.5051895,230.7369 54.9672342,229.307177 L41.5815468,192.226806 L5.38399156,201.773522 C5.05013571,201.859631 4.70680879,201.902862 4.36218337,201.902184 C2.91491964,201.937225 1.56123436,201.183869 0.820303358,199.93105 C0.0793723594,198.678231 0.0662062851,197.120417 0.78585469,195.855072 L44.2127029,116.08467 L43.7017988,115.261234 C23.9126644,83.6470387 30.2271864,42.1838377 58.5140875,17.9989392 C86.8009885,-6.18595937 128.441581,-5.72370047 156.192499,19.0832829 C183.943417,43.8902663 189.349281,85.4835771 168.873303,116.650783 L168.336853,117.474219 L210.792984,195.855072 C211.437791,197.113539 211.381352,198.62023 210.644232,199.826169 C209.907111,201.032109 208.596947,201.761199 207.19111,201.747789 C206.854964,201.7474 206.520219,201.704169 206.194847,201.619127 L169.920656,192.098144 L156.534969,229.101318 C155.972152,230.566579 154.61707,231.570264 153.060821,231.674556 L152.754278,231.674556 C151.306927,231.690655 149.961833,230.924814 149.22904,229.66743 L105.802192,149.639704 L62.3753436,229.821824 C61.6537173,231.0493 60.3429327,231.802411 58.9267409,231.803218 L58.313656,231.880415 Z M161.209741,126.377625 C149.644995,138.985944 134.152791,147.238185 117.297534,149.768366 L114.97292,150.102887 L152.064558,218.062123 L163.764262,185.999568 C164.444079,184.015898 166.525961,182.894434 168.541215,183.426329 L199.323187,191.506299 L162.946815,124.602091 L161.209741,126.377625 Z M44.0849769,183.349132 C45.7446849,183.34155 47.2375638,184.364556 47.840122,185.922371 L59.4631902,217.984926 L96.5548277,149.845563 L94.2813045,149.536774 C77.4799073,146.663325 62.1577373,138.09267 50.8544562,125.2454 L49.3217439,123.495598 L12.2811969,191.557764 L43.0631687,183.477794 C43.3969731,183.391411 43.7403347,183.348177 44.0849769,183.349132 Z M106.594093,8.36889483 C69.9127028,8.36889483 40.1765606,38.3229292 40.1765606,75.2731032 C40.1765606,112.223277 69.9127028,142.177311 106.594093,142.177311 C143.275484,142.177311 173.011626,112.223277 173.011626,75.2731032 C172.871251,38.3983537 143.20078,8.55645354 106.594093,8.47182438 L106.594093,8.36889483 Z" id="Shape" fill="#222222"></path>
                <polygon id="Combined-Shape" stroke="#000000" stroke-width="6.83999991" points="88.303339 100.509804 90.4029428 81.8291939 77.5053763 67.8187364 96.401811 64.0242375 106 47.9705882 115.598189 64.0242375 134.494624 67.8187364 121.597057 81.8291939 123.696661 100.509804 106 92.9208061"></polygon>
            </g>
        </g>
    </g>
</svg>